# ProBuilder 4.5.2
# https://unity3d.com/unity/features/worldbuilding/probuilder
# 12/27/2021 9:31:32 PM

mtllib ./ButtonClick.mtl
o ButtonClick

g ButtonClick
v 0 0 0
v 0 0.26 0
v 0.005393147 0 0.1097792
v 0.005393147 0.26 0.1097792
v 0.0215205 0 0.2185012
v 0.0215205 0.26 0.2185012
v 0.04822683 0 0.3251188
v 0.04822683 0.26 0.3251188
v 0.08525491 0 0.4286055
v 0.08525491 0.26 0.4286055
v 0.1322482 0 0.5279643
v 0.1322482 0.26 0.5279643
v 0.1887541 0 0.6222387
v 0.1887541 0.26 0.6222387
v 0.2542282 0 0.7105204
v 0.2542282 0.26 0.7105204
v 0.3280404 0 0.7919596
v 0.3280404 0.26 0.7919596
v 0.4094796 0 0.8657717
v 0.4094796 0.26 0.8657717
v 0.4977613 0 0.9312459
v 0.4977613 0.26 0.9312459
v 0.5920356 0 0.9877518
v 0.5920356 0.26 0.9877518
v 0.6913946 0 1.034745
v 0.6913946 0.26 1.034745
v 0.7948812 0 1.071773
v 0.7948812 0.26 1.071773
v 0.9014988 0 1.09848
v 0.9014988 0.26 1.09848
v 1.010221 0 1.114607
v 1.010221 0.26 1.114607
v 1.12 0 1.12
v 1.12 0.26 1.12
v 1.229779 0 1.114607
v 1.229779 0.26 1.114607
v 1.338501 0 1.09848
v 1.338501 0.26 1.09848
v 1.445119 0 1.071773
v 1.445119 0.26 1.071773
v 1.548605 0 1.034745
v 1.548605 0.26 1.034745
v 1.647964 0 0.9877518
v 1.647964 0.26 0.9877518
v 1.742239 0 0.931246
v 1.742239 0.26 0.931246
v 1.83052 0 0.8657718
v 1.83052 0.26 0.8657718
v 1.91196 0 0.7919596
v 1.91196 0.26 0.7919596
v 1.985772 0 0.7105204
v 1.985772 0.26 0.7105204
v 2.051246 0 0.6222386
v 2.051246 0.26 0.6222386
v 2.107752 0 0.5279645
v 2.107752 0.26 0.5279645
v 2.154745 0 0.4286055
v 2.154745 0.26 0.4286055
v 2.191773 0 0.3251189
v 2.191773 0.26 0.3251189
v 2.21848 0 0.2185012
v 2.21848 0.26 0.2185012
v 2.234607 0 0.1097791
v 2.234607 0.26 0.1097791
v 2.24 0 -9.791351E-08
v 2.24 0.26 -9.791351E-08
v 2.234607 0 -0.1097791
v 2.234607 0.26 -0.1097791
v 2.21848 0 -0.2185011
v 2.21848 0.26 -0.2185011
v 2.191773 0 -0.3251188
v 2.191773 0.26 -0.3251188
v 2.154745 0 -0.4286054
v 2.154745 0.26 -0.4286054
v 2.107752 0 -0.5279644
v 2.107752 0.26 -0.5279644
v 2.051246 0 -0.6222388
v 2.051246 0.26 -0.6222388
v 1.985772 0 -0.7105204
v 1.985772 0.26 -0.7105204
v 1.91196 0 -0.7919595
v 1.91196 0.26 -0.7919595
v 1.830521 0 -0.8657717
v 1.830521 0.26 -0.8657717
v 1.742239 0 -0.9312458
v 1.742239 0.26 -0.9312458
v 1.647964 0 -0.9877518
v 1.647964 0.26 -0.9877518
v 1.548606 0 -1.034745
v 1.548606 0.26 -1.034745
v 1.445119 0 -1.071773
v 1.445119 0.26 -1.071773
v 1.338501 0 -1.09848
v 1.338501 0.26 -1.09848
v 1.229779 0 -1.114607
v 1.229779 0.26 -1.114607
v 1.12 0 -1.12
v 1.12 0.26 -1.12
v 1.010221 0 -1.114607
v 1.010221 0.26 -1.114607
v 0.9014987 0 -1.09848
v 0.9014987 0.26 -1.09848
v 0.7948813 0 -1.071773
v 0.7948813 0.26 -1.071773
v 0.6913943 0 -1.034745
v 0.6913943 0.26 -1.034745
v 0.5920357 0 -0.9877518
v 0.5920357 0.26 -0.9877518
v 0.4977615 0 -0.9312461
v 0.4977615 0.26 -0.9312461
v 0.4094794 0 -0.8657717
v 0.4094794 0.26 -0.8657717
v 0.3280405 0 -0.7919597
v 0.3280405 0.26 -0.7919597
v 0.2542282 0 -0.7105203
v 0.2542282 0.26 -0.7105203
v 0.1887541 0 -0.6222388
v 0.1887541 0.26 -0.6222388
v 0.1322483 0 -0.5279647
v 0.1322483 0.26 -0.5279647
v 0.08525491 0 -0.4286054
v 0.08525491 0.26 -0.4286054
v 0.04822683 0 -0.325119
v 0.04822683 0.26 -0.325119
v 0.0215205 0 -0.2185011
v 0.0215205 0.26 -0.2185011
v 0.005393147 0 -0.1097793
v 0.005393147 0.26 -0.1097793
v 1.12 0 0
v 1.12 0.26 0

vt 0 0
vt 0 0.26
vt 0.1099116 0
vt 0.1099116 0.26
vt 0.1093824 0
vt 0.1093824 0.26
vt 0.2192939 0
vt 0.2192939 0.26
vt 0.217182 0
vt 0.217182 0.26
vt 0.3270936 0
vt 0.3270936 0.26
vt 0.3223608 0
vt 0.3223608 0.26
vt 0.4322725 0
vt 0.4322725 0.26
vt 0.4239059 0
vt 0.4239059 0.26
vt 0.5338174 0
vt 0.5338174 0.26
vt 0.5208392 0
vt 0.5208392 0.26
vt 0.6307509 0
vt 0.6307509 0.26
vt 0.6122276 0
vt 0.6122276 0.26
vt 0.7221391 0
vt 0.7221391 0.26
vt 0.69719 0
vt 0.69719 0.26
vt 0.8071017 0
vt 0.8071017 0.26
vt 0.7749094 0
vt 0.7749094 0.26
vt 0.8848211 0
vt 0.8848211 0.26
vt 0.8446367 0
vt 0.8446367 0.26
vt 0.9545482 0
vt 0.9545482 0.26
vt 0.9057003 0
vt 0.9057003 0.26
vt 1.015612 0
vt 1.015612 0.26
vt 0.9575123 0
vt 0.9575123 0.26
vt 1.067424 0
vt 1.067424 0.26
vt 0.9995733 0
vt 0.9995733 0.26
vt 1.109485 0
vt 1.109485 0.26
vt 1.031479 0
vt 1.031479 0.26
vt 1.141391 0
vt 1.141391 0.26
vt 1.052922 0
vt 1.052922 0.26
vt 1.162833 0
vt 1.162833 0.26
vt 1.063695 0
vt 1.063695 0.26
vt 1.173607 0
vt 1.173607 0.26
vt -0.109915 0
vt -0.109915 0.26
vt -0.2192885 0
vt -0.2192885 0.26
vt -0.1093769 0
vt -0.1093769 0.26
vt -0.3270959 0
vt -0.3270959 0.26
vt -0.2171843 0
vt -0.2171843 0.26
vt -0.4322717 0
vt -0.4322717 0.26
vt -0.3223601 0
vt -0.3223601 0.26
vt -0.5338168 0
vt -0.5338168 0.26
vt -0.4239051 0
vt -0.4239051 0.26
vt -0.6307517 0
vt -0.6307517 0.26
vt -0.5208401 0
vt -0.5208401 0.26
vt -0.7221377 0
vt -0.7221377 0.26
vt -0.6122264 0
vt -0.6122264 0.26
vt -0.8071035 0
vt -0.8071035 0.26
vt -0.6971918 0
vt -0.6971918 0.26
vt -0.8848191 0
vt -0.8848191 0.26
vt -0.7749075 0
vt -0.7749075 0.26
vt -0.9545499 0
vt -0.9545499 0.26
vt -0.8446385 0
vt -0.8446385 0.26
vt -1.015612 0
vt -1.015612 0.26
vt -0.9057003 0
vt -0.9057003 0.26
vt -1.067422 0
vt -1.067422 0.26
vt -0.9575104 0
vt -0.9575104 0.26
vt -1.109488 0
vt -1.109488 0.26
vt -0.9995756 0
vt -0.9995756 0.26
vt -1.14139 0
vt -1.14139 0.26
vt -1.031479 0
vt -1.031479 0.26
vt -1.162834 0
vt -1.162834 0.26
vt -1.052922 0
vt -1.052922 0.26
vt -1.173607 0
vt -1.173607 0.26
vt -1.063695 0
vt -1.063695 0.26
vt 1.12 0
vt 0.005393147 0.1097792
vt -1.12 0
vt -0.005393147 0.1097792
vt 0.0215205 0.2185012
vt -0.0215205 0.2185012
vt 0.04822683 0.3251188
vt -0.04822683 0.3251188
vt 0.08525491 0.4286055
vt -0.08525491 0.4286055
vt 0.1322482 0.5279643
vt -0.1322482 0.5279643
vt 0.1887541 0.6222387
vt -0.1887541 0.6222387
vt 0.2542282 0.7105204
vt -0.2542282 0.7105204
vt 0.3280404 0.7919596
vt -0.3280404 0.7919596
vt 0.4094796 0.8657717
vt -0.4094796 0.8657717
vt 0.4977613 0.9312459
vt -0.4977613 0.9312459
vt 0.5920356 0.9877518
vt -0.5920356 0.9877518
vt 0.6913946 1.034745
vt -0.6913946 1.034745
vt 0.7948812 1.071773
vt -0.7948812 1.071773
vt 0.9014988 1.09848
vt -0.9014988 1.09848
vt 1.010221 1.114607
vt -1.010221 1.114607
vt 1.12 1.12
vt -1.12 1.12
vt 1.229779 1.114607
vt -1.229779 1.114607
vt 1.338501 1.09848
vt -1.338501 1.09848
vt 1.445119 1.071773
vt -1.445119 1.071773
vt 1.548605 1.034745
vt -1.548605 1.034745
vt 1.647964 0.9877518
vt -1.647964 0.9877518
vt 1.742239 0.931246
vt -1.742239 0.931246
vt 1.83052 0.8657718
vt -1.83052 0.8657718
vt 1.91196 0.7919596
vt -1.91196 0.7919596
vt 1.985772 0.7105204
vt -1.985772 0.7105204
vt 2.051246 0.6222386
vt -2.051246 0.6222386
vt 2.107752 0.5279645
vt -2.107752 0.5279645
vt 2.154745 0.4286055
vt -2.154745 0.4286055
vt 2.191773 0.3251189
vt -2.191773 0.3251189
vt 2.21848 0.2185012
vt -2.21848 0.2185012
vt 2.234607 0.1097791
vt -2.234607 0.1097791
vt 2.24 -9.791351E-08
vt -2.24 -9.791351E-08
vt 2.234607 -0.1097791
vt -2.234607 -0.1097791
vt 2.21848 -0.2185011
vt -2.21848 -0.2185011
vt 2.191773 -0.3251188
vt -2.191773 -0.3251188
vt 2.154745 -0.4286054
vt -2.154745 -0.4286054
vt 2.107752 -0.5279644
vt -2.107752 -0.5279644
vt 2.051246 -0.6222388
vt -2.051246 -0.6222388
vt 1.985772 -0.7105204
vt -1.985772 -0.7105204
vt 1.91196 -0.7919595
vt -1.91196 -0.7919595
vt 1.830521 -0.8657717
vt -1.830521 -0.8657717
vt 1.742239 -0.9312458
vt -1.742239 -0.9312458
vt 1.647964 -0.9877518
vt -1.647964 -0.9877518
vt 1.548606 -1.034745
vt -1.548606 -1.034745
vt 1.445119 -1.071773
vt -1.445119 -1.071773
vt 1.338501 -1.09848
vt -1.338501 -1.09848
vt 1.229779 -1.114607
vt -1.229779 -1.114607
vt 1.12 -1.12
vt -1.12 -1.12
vt 1.010221 -1.114607
vt -1.010221 -1.114607
vt 0.9014987 -1.09848
vt -0.9014987 -1.09848
vt 0.7948813 -1.071773
vt -0.7948813 -1.071773
vt 0.6913943 -1.034745
vt -0.6913943 -1.034745
vt 0.5920357 -0.9877518
vt -0.5920357 -0.9877518
vt 0.4977615 -0.9312461
vt -0.4977615 -0.9312461
vt 0.4094794 -0.8657717
vt -0.4094794 -0.8657717
vt 0.3280405 -0.7919597
vt -0.3280405 -0.7919597
vt 0.2542282 -0.7105203
vt -0.2542282 -0.7105203
vt 0.1887541 -0.6222388
vt -0.1887541 -0.6222388
vt 0.1322483 -0.5279647
vt -0.1322483 -0.5279647
vt 0.08525491 -0.4286054
vt -0.08525491 -0.4286054
vt 0.04822683 -0.325119
vt -0.04822683 -0.325119
vt 0.0215205 -0.2185011
vt -0.0215205 -0.2185011
vt 0.005393147 -0.1097793
vt -0.005393147 -0.1097793

vn -1 0 2.610848E-08
vn -0.9951847 0 0.09801719
vn -0.9807853 0 0.1950902
vn -0.9569404 0 0.2902845
vn -0.9238796 0 0.3826834
vn -0.8819212 0 0.4713969
vn -0.8314697 0 0.5555701
vn -0.7730105 0 0.6343932
vn -0.7071066 0 0.7071069
vn -0.6343932 0 0.7730105
vn -0.5555703 0 0.8314695
vn -0.4713969 0 0.8819212
vn -0.3826833 0 0.9238796
vn -0.2902847 0 0.9569404
vn -0.1950903 0 0.9807853
vn -0.09801717 0 0.9951847
vn 2.424359E-08 0 1
vn 0.09801711 0 0.9951847
vn 0.1950901 0 0.9807854
vn 0.2902847 0 0.9569404
vn 0.3826836 0 0.9238794
vn 0.4713966 0 0.8819214
vn 0.5555701 0 0.8314697
vn 0.6343933 0 0.7730104
vn 0.7071067 0 0.7071069
vn 0.7730101 0 0.6343937
vn 0.8314695 0 0.5555704
vn 0.8819215 0 0.4713963
vn 0.9238796 0 0.3826832
vn 0.9569402 0 0.290285
vn 0.9807854 0 0.1950895
vn 0.9951848 0 0.09801663
vn 1 0 -5.967653E-08
vn 0.9951848 0 -0.09801669
vn 0.9807854 0 -0.1950896
vn 0.9569402 0 -0.290285
vn 0.9238797 0 -0.3826831
vn 0.8819212 0 -0.4713968
vn 0.8314697 0 -0.5555702
vn 0.7730104 0 -0.6343933
vn 0.7071069 0 -0.7071066
vn 0.6343933 0 -0.7730104
vn 0.5555698 0 -0.8314698
vn 0.4713973 0 -0.881921
vn 0.3826833 0 -0.9238796
vn 0.2902842 0 -0.9569405
vn 0.1950906 0 -0.9807853
vn 0.09801728 0 -0.9951847
vn -1.062988E-07 0 -1
vn -0.09801704 0 -0.9951848
vn -0.1950902 0 -0.9807853
vn -0.2902848 0 -0.9569403
vn -0.3826833 0 -0.9238796
vn -0.4713967 0 -0.8819213
vn -0.5555699 0 -0.8314698
vn -0.6343933 0 -0.7730104
vn -0.7071069 0 -0.7071066
vn -0.7730104 0 -0.6343933
vn -0.8314695 0 -0.5555704
vn -0.8819212 0 -0.4713969
vn -0.9238794 0 -0.3826837
vn -0.9569404 0 -0.2902846
vn -0.9807854 0 -0.19509
vn -0.9951847 0 -0.09801731
vn 0 -1 0
vn 0 1 0

usemtl Click
f 1/1/65 129/127/65 3/128/65
f 3/128/65 129/127/65 5/131/65
f 5/131/65 129/127/65 7/133/65
f 7/133/65 129/127/65 9/135/65
f 9/135/65 129/127/65 11/137/65
f 11/137/65 129/127/65 13/139/65
f 13/139/65 129/127/65 15/141/65
f 15/141/65 129/127/65 17/143/65
f 17/143/65 129/127/65 19/145/65
f 19/145/65 129/127/65 21/147/65
f 21/147/65 129/127/65 23/149/65
f 23/149/65 129/127/65 25/151/65
f 25/151/65 129/127/65 27/153/65
f 27/153/65 129/127/65 29/155/65
f 29/155/65 129/127/65 31/157/65
f 31/157/65 129/127/65 33/159/65
f 33/159/65 129/127/65 35/161/65
f 35/161/65 129/127/65 37/163/65
f 37/163/65 129/127/65 39/165/65
f 39/165/65 129/127/65 41/167/65
f 41/167/65 129/127/65 43/169/65
f 43/169/65 129/127/65 45/171/65
f 45/171/65 129/127/65 47/173/65
f 47/173/65 129/127/65 49/175/65
f 49/175/65 129/127/65 51/177/65
f 51/177/65 129/127/65 53/179/65
f 53/179/65 129/127/65 55/181/65
f 55/181/65 129/127/65 57/183/65
f 57/183/65 129/127/65 59/185/65
f 59/185/65 129/127/65 61/187/65
f 61/187/65 129/127/65 63/189/65
f 63/189/65 129/127/65 65/191/65
f 65/191/65 129/127/65 67/193/65
f 67/193/65 129/127/65 69/195/65
f 69/195/65 129/127/65 71/197/65
f 71/197/65 129/127/65 73/199/65
f 73/199/65 129/127/65 75/201/65
f 75/201/65 129/127/65 77/203/65
f 77/203/65 129/127/65 79/205/65
f 79/205/65 129/127/65 81/207/65
f 81/207/65 129/127/65 83/209/65
f 83/209/65 129/127/65 85/211/65
f 85/211/65 129/127/65 87/213/65
f 87/213/65 129/127/65 89/215/65
f 89/215/65 129/127/65 91/217/65
f 91/217/65 129/127/65 93/219/65
f 93/219/65 129/127/65 95/221/65
f 95/221/65 129/127/65 97/223/65
f 97/223/65 129/127/65 99/225/65
f 99/225/65 129/127/65 101/227/65
f 101/227/65 129/127/65 103/229/65
f 103/229/65 129/127/65 105/231/65
f 105/231/65 129/127/65 107/233/65
f 107/233/65 129/127/65 109/235/65
f 109/235/65 129/127/65 111/237/65
f 111/237/65 129/127/65 113/239/65
f 113/239/65 129/127/65 115/241/65
f 115/241/65 129/127/65 117/243/65
f 117/243/65 129/127/65 119/245/65
f 119/245/65 129/127/65 121/247/65
f 121/247/65 129/127/65 123/249/65
f 123/249/65 129/127/65 125/251/65
f 125/251/65 129/127/65 127/253/65
f 127/253/65 129/127/65 1/1/65
f 4/130/66 130/129/66 2/1/66
f 6/132/66 130/129/66 4/130/66
f 8/134/66 130/129/66 6/132/66
f 10/136/66 130/129/66 8/134/66
f 12/138/66 130/129/66 10/136/66
f 14/140/66 130/129/66 12/138/66
f 16/142/66 130/129/66 14/140/66
f 18/144/66 130/129/66 16/142/66
f 20/146/66 130/129/66 18/144/66
f 22/148/66 130/129/66 20/146/66
f 24/150/66 130/129/66 22/148/66
f 26/152/66 130/129/66 24/150/66
f 28/154/66 130/129/66 26/152/66
f 30/156/66 130/129/66 28/154/66
f 32/158/66 130/129/66 30/156/66
f 34/160/66 130/129/66 32/158/66
f 36/162/66 130/129/66 34/160/66
f 38/164/66 130/129/66 36/162/66
f 40/166/66 130/129/66 38/164/66
f 42/168/66 130/129/66 40/166/66
f 44/170/66 130/129/66 42/168/66
f 46/172/66 130/129/66 44/170/66
f 48/174/66 130/129/66 46/172/66
f 50/176/66 130/129/66 48/174/66
f 52/178/66 130/129/66 50/176/66
f 54/180/66 130/129/66 52/178/66
f 56/182/66 130/129/66 54/180/66
f 58/184/66 130/129/66 56/182/66
f 60/186/66 130/129/66 58/184/66
f 62/188/66 130/129/66 60/186/66
f 64/190/66 130/129/66 62/188/66
f 66/192/66 130/129/66 64/190/66
f 68/194/66 130/129/66 66/192/66
f 70/196/66 130/129/66 68/194/66
f 72/198/66 130/129/66 70/196/66
f 74/200/66 130/129/66 72/198/66
f 76/202/66 130/129/66 74/200/66
f 78/204/66 130/129/66 76/202/66
f 80/206/66 130/129/66 78/204/66
f 82/208/66 130/129/66 80/206/66
f 84/210/66 130/129/66 82/208/66
f 86/212/66 130/129/66 84/210/66
f 88/214/66 130/129/66 86/212/66
f 90/216/66 130/129/66 88/214/66
f 92/218/66 130/129/66 90/216/66
f 94/220/66 130/129/66 92/218/66
f 96/222/66 130/129/66 94/220/66
f 98/224/66 130/129/66 96/222/66
f 100/226/66 130/129/66 98/224/66
f 102/228/66 130/129/66 100/226/66
f 104/230/66 130/129/66 102/228/66
f 106/232/66 130/129/66 104/230/66
f 108/234/66 130/129/66 106/232/66
f 110/236/66 130/129/66 108/234/66
f 112/238/66 130/129/66 110/236/66
f 114/240/66 130/129/66 112/238/66
f 116/242/66 130/129/66 114/240/66
f 118/244/66 130/129/66 116/242/66
f 120/246/66 130/129/66 118/244/66
f 122/248/66 130/129/66 120/246/66
f 124/250/66 130/129/66 122/248/66
f 126/252/66 130/129/66 124/250/66
f 128/254/66 130/129/66 126/252/66
f 2/1/66 130/129/66 128/254/66
f 4/4/2 2/2/1 1/1/1
f 1/1/1 3/3/2 4/4/2
f 6/8/3 4/6/2 3/5/2
f 3/5/2 5/7/3 6/8/3
f 8/12/4 6/10/3 5/9/3
f 5/9/3 7/11/4 8/12/4
f 10/16/5 8/14/4 7/13/4
f 7/13/4 9/15/5 10/16/5
f 12/20/6 10/18/5 9/17/5
f 9/17/5 11/19/6 12/20/6
f 14/24/7 12/22/6 11/21/6
f 11/21/6 13/23/7 14/24/7
f 16/28/8 14/26/7 13/25/7
f 13/25/7 15/27/8 16/28/8
f 18/32/9 16/30/8 15/29/8
f 15/29/8 17/31/9 18/32/9
f 20/36/10 18/34/9 17/33/9
f 17/33/9 19/35/10 20/36/10
f 22/40/11 20/38/10 19/37/10
f 19/37/10 21/39/11 22/40/11
f 24/44/12 22/42/11 21/41/11
f 21/41/11 23/43/12 24/44/12
f 26/48/13 24/46/12 23/45/12
f 23/45/12 25/47/13 26/48/13
f 28/52/14 26/50/13 25/49/13
f 25/49/13 27/51/14 28/52/14
f 30/56/15 28/54/14 27/53/14
f 27/53/14 29/55/15 30/56/15
f 32/60/16 30/58/15 29/57/15
f 29/57/15 31/59/16 32/60/16
f 34/64/17 32/62/16 31/61/16
f 31/61/16 33/63/17 34/64/17
f 36/64/18 34/62/17 33/61/17
f 33/61/17 35/63/18 36/64/18
f 38/60/19 36/58/18 35/57/18
f 35/57/18 37/59/19 38/60/19
f 40/56/20 38/54/19 37/53/19
f 37/53/19 39/55/20 40/56/20
f 42/52/21 40/50/20 39/49/20
f 39/49/20 41/51/21 42/52/21
f 44/48/22 42/46/21 41/45/21
f 41/45/21 43/47/22 44/48/22
f 46/44/23 44/42/22 43/41/22
f 43/41/22 45/43/23 46/44/23
f 48/40/24 46/38/23 45/37/23
f 45/37/23 47/39/24 48/40/24
f 50/36/25 48/34/24 47/33/24
f 47/33/24 49/35/25 50/36/25
f 52/32/26 50/30/25 49/29/25
f 49/29/25 51/31/26 52/32/26
f 54/28/27 52/26/26 51/25/26
f 51/25/26 53/27/27 54/28/27
f 56/24/28 54/22/27 53/21/27
f 53/21/27 55/23/28 56/24/28
f 58/20/29 56/18/28 55/17/28
f 55/17/28 57/19/29 58/20/29
f 60/16/30 58/14/29 57/13/29
f 57/13/29 59/15/30 60/16/30
f 62/12/31 60/10/30 59/9/30
f 59/9/30 61/11/31 62/12/31
f 64/8/32 62/6/31 61/5/31
f 61/5/31 63/7/32 64/8/32
f 66/4/33 64/2/32 63/1/32
f 63/1/32 65/3/33 66/4/33
f 68/2/34 66/66/33 65/65/33
f 65/65/33 67/1/34 68/2/34
f 70/70/35 68/68/34 67/67/34
f 67/67/34 69/69/35 70/70/35
f 72/74/36 70/72/35 69/71/35
f 69/71/35 71/73/36 72/74/36
f 74/78/37 72/76/36 71/75/36
f 71/75/36 73/77/37 74/78/37
f 76/82/38 74/80/37 73/79/37
f 73/79/37 75/81/38 76/82/38
f 78/86/39 76/84/38 75/83/38
f 75/83/38 77/85/39 78/86/39
f 80/90/40 78/88/39 77/87/39
f 77/87/39 79/89/40 80/90/40
f 82/94/41 80/92/40 79/91/40
f 79/91/40 81/93/41 82/94/41
f 84/98/42 82/96/41 81/95/41
f 81/95/41 83/97/42 84/98/42
f 86/102/43 84/100/42 83/99/42
f 83/99/42 85/101/43 86/102/43
f 88/106/44 86/104/43 85/103/43
f 85/103/43 87/105/44 88/106/44
f 90/110/45 88/108/44 87/107/44
f 87/107/44 89/109/45 90/110/45
f 92/114/46 90/112/45 89/111/45
f 89/111/45 91/113/46 92/114/46
f 94/118/47 92/116/46 91/115/46
f 91/115/46 93/117/47 94/118/47
f 96/122/48 94/120/47 93/119/47
f 93/119/47 95/121/48 96/122/48
f 98/126/49 96/124/48 95/123/48
f 95/123/48 97/125/49 98/126/49
f 100/126/50 98/124/49 97/123/49
f 97/123/49 99/125/50 100/126/50
f 102/122/51 100/120/50 99/119/50
f 99/119/50 101/121/51 102/122/51
f 104/118/52 102/116/51 101/115/51
f 101/115/51 103/117/52 104/118/52
f 106/114/53 104/112/52 103/111/52
f 103/111/52 105/113/53 106/114/53
f 108/110/54 106/108/53 105/107/53
f 105/107/53 107/109/54 108/110/54
f 110/106/55 108/104/54 107/103/54
f 107/103/54 109/105/55 110/106/55
f 112/102/56 110/100/55 109/99/55
f 109/99/55 111/101/56 112/102/56
f 114/98/57 112/96/56 111/95/56
f 111/95/56 113/97/57 114/98/57
f 116/94/58 114/92/57 113/91/57
f 113/91/57 115/93/58 116/94/58
f 118/90/59 116/88/58 115/87/58
f 115/87/58 117/89/59 118/90/59
f 120/86/60 118/84/59 117/83/59
f 117/83/59 119/85/60 120/86/60
f 122/82/61 120/80/60 119/79/60
f 119/79/60 121/81/61 122/82/61
f 124/78/62 122/76/61 121/75/61
f 121/75/61 123/77/62 124/78/62
f 126/74/63 124/72/62 123/71/62
f 123/71/62 125/73/63 126/74/63
f 128/70/64 126/68/63 125/67/63
f 125/67/63 127/69/64 128/70/64
f 2/2/1 128/66/64 127/65/64
f 127/65/64 1/1/1 2/2/1

